<svg xmlns="http://www.w3.org/2000/svg" xmlns:xlink="http://www.w3.org/1999/xlink" width="500" zoomAndPan="magnify" viewBox="0 0 375 374.999991" height="500" preserveAspectRatio="xMidYMid meet" version="1.0"><defs><g/><clipPath id="82a3d423ea"><path d="M 152.761719 109.417969 L 222.4375 109.417969 L 222.4375 168.640625 L 152.761719 168.640625 Z M 152.761719 109.417969 " clip-rule="nonzero"/></clipPath></defs><g clip-path="url(#82a3d423ea)"><path fill="#267a9c" d="M 156.027344 139.035156 L 171.808594 154.359375 L 170.175781 155.949219 L 152.761719 139.035156 L 170.179688 122.121094 L 171.816406 123.707031 Z M 193.046875 109.429688 L 195.222656 109.960938 L 182.152344 168.628906 L 179.976562 168.097656 Z M 205.019531 122.121094 L 222.4375 139.035156 L 205.019531 155.949219 L 203.382812 154.359375 L 219.167969 139.035156 L 203.382812 123.707031 Z M 205.019531 122.121094 " fill-opacity="1" fill-rule="nonzero"/></g><g fill="#ffffff" fill-opacity="1"><g transform="translate(68.975603, 214.970376)"><g><path d="M 24.453125 -4.523438 L 8.320312 -4.523438 L 8.320312 -14.964844 L 23.589844 -14.964844 L 23.589844 -19.300781 L 8.320312 -19.300781 L 8.320312 -29.136719 L 24.453125 -29.136719 L 24.453125 -33.636719 L 3.101562 -33.636719 L 3.101562 0 L 24.453125 0 Z M 24.453125 -4.523438 "/></g></g></g><g fill="#ffffff" fill-opacity="1"><g transform="translate(95.684154, 214.970376)"><g><path d="M 2.492188 0 L 7.527344 0 L 7.527344 -15.152344 C 7.527344 -18.296875 9.648438 -20.628906 12.632812 -20.628906 C 15.476562 -20.628906 17.273438 -18.832031 17.273438 -16.011719 L 17.273438 0 L 22.214844 0 L 22.214844 -15.3125 C 22.214844 -18.414062 24.289062 -20.628906 27.273438 -20.628906 C 30.253906 -20.628906 31.957031 -18.8125 31.957031 -15.640625 L 31.957031 0 L 37.015625 0 L 37.015625 -16.851562 C 37.015625 -21.722656 33.84375 -24.941406 28.996094 -24.941406 C 25.5 -24.941406 22.609375 -23.121094 21.351562 -20.140625 L 21.234375 -20.140625 C 20.253906 -23.191406 17.785156 -24.941406 14.382812 -24.941406 C 11.070312 -24.941406 8.507812 -23.121094 7.414062 -20.394531 L 7.296875 -20.394531 L 7.296875 -24.519531 L 2.492188 -24.519531 Z M 2.492188 0 "/></g></g></g><g fill="#ffffff" fill-opacity="1"><g transform="translate(135.047811, 214.970376)"><g><path d="M 2.492188 0 L 7.527344 0 L 7.527344 -14.683594 C 7.527344 -18.15625 9.535156 -20.324219 12.773438 -20.324219 C 13.753906 -20.324219 14.636719 -20.210938 15.035156 -20.046875 L 15.035156 -24.730469 C 14.660156 -24.800781 14.03125 -24.917969 13.308594 -24.917969 C 10.417969 -24.917969 8.226562 -23.214844 7.414062 -20.347656 L 7.296875 -20.347656 L 7.296875 -24.519531 L 2.492188 -24.519531 Z M 2.492188 0 "/></g></g></g><g fill="#ffffff" fill-opacity="1"><g transform="translate(150.70937, 214.970376)"><g><path d="M 12.75 -20.910156 C 16.269531 -20.910156 18.648438 -18.273438 18.765625 -14.523438 L 6.503906 -14.523438 C 6.757812 -18.226562 9.230469 -20.910156 12.75 -20.910156 Z M 18.742188 -7.203125 C 18.066406 -5.058594 15.945312 -3.613281 13.078125 -3.613281 C 9.042969 -3.613281 6.480469 -6.433594 6.480469 -10.699219 L 6.480469 -11.003906 L 23.796875 -11.003906 L 23.796875 -12.726562 C 23.796875 -20.164062 19.554688 -24.964844 12.75 -24.964844 C 5.828125 -24.964844 1.398438 -19.835938 1.398438 -12.144531 C 1.398438 -4.40625 5.757812 0.464844 12.960938 0.464844 C 18.578125 0.464844 22.820312 -2.726562 23.519531 -7.203125 Z M 18.742188 -7.203125 "/></g></g></g><g fill="#ffffff" fill-opacity="1"><g transform="translate(175.903044, 214.970376)"><g/></g></g><g fill="#ffffff" fill-opacity="1"><g transform="translate(185.574995, 214.970376)"><g><path d="M 16.667969 0 L 16.667969 -29.136719 L 26.945312 -29.136719 L 26.945312 -33.636719 L 1.140625 -33.636719 L 1.140625 -29.136719 L 11.445312 -29.136719 L 11.445312 0 Z M 16.667969 0 "/></g></g></g><g fill="#ffffff" fill-opacity="1"><g transform="translate(213.6586, 214.970376)"><g><path d="M 23.519531 -24.519531 L 18.484375 -24.519531 L 18.484375 -10.234375 C 18.484375 -6.410156 16.292969 -3.894531 12.65625 -3.894531 C 9.183594 -3.894531 7.414062 -5.898438 7.414062 -9.625 L 7.414062 -24.519531 L 2.378906 -24.519531 L 2.378906 -8.648438 C 2.378906 -3.03125 5.640625 0.441406 10.980469 0.441406 C 14.730469 0.441406 17.226562 -1.210938 18.578125 -4.148438 L 18.695312 -4.148438 L 18.695312 0 L 23.519531 0 Z M 23.519531 -24.519531 "/></g></g></g><g fill="#ffffff" fill-opacity="1"><g transform="translate(239.644675, 214.970376)"><g><path d="M 2.492188 0 L 7.527344 0 L 7.527344 -14.683594 C 7.527344 -18.15625 9.535156 -20.324219 12.773438 -20.324219 C 13.753906 -20.324219 14.636719 -20.210938 15.035156 -20.046875 L 15.035156 -24.730469 C 14.660156 -24.800781 14.03125 -24.917969 13.308594 -24.917969 C 10.417969 -24.917969 8.226562 -23.214844 7.414062 -20.347656 L 7.296875 -20.347656 L 7.296875 -24.519531 L 2.492188 -24.519531 Z M 2.492188 0 "/></g></g></g><g fill="#ffffff" fill-opacity="1"><g transform="translate(255.306234, 214.970376)"><g><path d="M 11.070312 -3.566406 C 8.367188 -3.566406 6.597656 -4.964844 6.597656 -7.109375 C 6.597656 -9.207031 8.296875 -10.535156 11.304688 -10.746094 L 17.34375 -11.117188 L 17.34375 -9.183594 C 17.34375 -5.992188 14.589844 -3.566406 11.070312 -3.566406 Z M 9.671875 0.417969 C 12.890625 0.417969 15.988281 -1.304688 17.410156 -4.03125 L 17.527344 -4.03125 L 17.527344 0 L 22.355469 0 L 22.355469 -16.898438 C 22.355469 -21.816406 18.554688 -24.964844 12.609375 -24.964844 C 6.550781 -24.964844 2.773438 -21.699219 2.492188 -17.273438 L 7.25 -17.273438 C 7.691406 -19.464844 9.511719 -20.863281 12.425781 -20.863281 C 15.5 -20.863281 17.34375 -19.230469 17.34375 -16.503906 L 17.34375 -14.613281 L 10.628906 -14.21875 C 4.800781 -13.890625 1.515625 -11.257812 1.515625 -6.96875 C 1.515625 -2.5625 4.871094 0.417969 9.671875 0.417969 Z M 9.671875 0.417969 "/></g></g></g><g fill="#ffffff" fill-opacity="1"><g transform="translate(280.033802, 214.970376)"><g><path d="M 2.492188 0 L 7.527344 0 L 7.527344 -14.289062 C 7.527344 -18.089844 9.8125 -20.605469 13.355469 -20.605469 C 16.851562 -20.605469 18.578125 -18.578125 18.578125 -14.894531 L 18.578125 0 L 23.636719 0 L 23.636719 -15.875 C 23.636719 -21.492188 20.535156 -24.941406 15.128906 -24.941406 C 11.351562 -24.941406 8.742188 -23.214844 7.414062 -20.417969 L 7.296875 -20.417969 L 7.296875 -24.519531 L 2.492188 -24.519531 Z M 2.492188 0 "/></g></g></g><path fill="#ffffff" d="M 161.289062 228.984375 L 213.53125 228.984375 C 216.925781 228.984375 220.1875 230.335938 222.585938 232.738281 C 224.988281 235.140625 226.339844 238.402344 226.339844 241.800781 L 226.339844 267.425781 C 226.339844 270.828125 224.988281 274.085938 222.585938 276.488281 C 220.1875 278.890625 216.925781 280.242188 213.53125 280.242188 L 161.289062 280.242188 C 154.214844 280.242188 148.480469 274.503906 148.480469 267.425781 L 148.480469 241.800781 C 148.480469 238.402344 149.828125 235.140625 152.230469 232.738281 C 154.632812 230.335938 157.890625 228.984375 161.289062 228.984375 " fill-opacity="1" fill-rule="nonzero"/><g fill="#267a9c" fill-opacity="1"><g transform="translate(161.563908, 265.488616)"><g><path d="M 7.96875 0.285156 C 10.398438 0.285156 12.304688 -0.9375 13.289062 -2.839844 L 13.351562 -2.839844 L 13.351562 0 L 16.683594 0 L 16.683594 -22.90625 L 13.238281 -22.90625 L 13.238281 -13.921875 L 13.175781 -13.921875 C 12.238281 -15.765625 10.335938 -16.96875 7.9375 -16.96875 C 3.746094 -16.96875 0.953125 -13.621094 0.953125 -8.351562 C 0.953125 -3.078125 3.746094 0.285156 7.96875 0.285156 Z M 8.875 -14.082031 C 11.507812 -14.082031 13.273438 -11.8125 13.273438 -8.351562 C 13.273438 -4.859375 11.507812 -2.621094 8.875 -2.621094 C 6.160156 -2.621094 4.460938 -4.824219 4.460938 -8.351562 C 4.460938 -11.859375 6.160156 -14.082031 8.875 -14.082031 Z M 8.875 -14.082031 "/></g></g></g><g fill="#267a9c" fill-opacity="1"><g transform="translate(180.0559, 265.488616)"><g><path d="M 8.683594 -14.238281 C 11.082031 -14.238281 12.699219 -12.445312 12.78125 -9.890625 L 4.429688 -9.890625 C 4.605469 -12.414062 6.285156 -14.238281 8.683594 -14.238281 Z M 12.765625 -4.90625 C 12.304688 -3.445312 10.859375 -2.460938 8.90625 -2.460938 C 6.160156 -2.460938 4.414062 -4.382812 4.414062 -7.285156 L 4.414062 -7.492188 L 16.207031 -7.492188 L 16.207031 -8.667969 C 16.207031 -13.730469 13.320312 -17.003906 8.683594 -17.003906 C 3.96875 -17.003906 0.953125 -13.511719 0.953125 -8.269531 C 0.953125 -3 3.921875 0.316406 8.828125 0.316406 C 12.652344 0.316406 15.542969 -1.855469 16.019531 -4.90625 Z M 12.765625 -4.90625 "/></g></g></g><g fill="#267a9c" fill-opacity="1"><g transform="translate(197.214564, 265.488616)"><g><path d="M 15.953125 -16.699219 L 12.367188 -16.699219 L 8.175781 -3.351562 L 8.113281 -3.351562 L 3.921875 -16.699219 L 0.269531 -16.699219 L 6.285156 0 L 9.96875 0 Z M 15.953125 -16.699219 "/></g></g></g></svg>