<svg xmlns="http://www.w3.org/2000/svg" xmlns:xlink="http://www.w3.org/1999/xlink" width="500" zoomAndPan="magnify" viewBox="0 0 375 374.999991" height="500" preserveAspectRatio="xMidYMid meet" version="1.0"><defs><g/><clipPath id="83ac391f6e"><path d="M 152.761719 105.914062 L 222.4375 105.914062 L 222.4375 165.136719 L 152.761719 165.136719 Z M 152.761719 105.914062 " clip-rule="nonzero"/></clipPath></defs><g clip-path="url(#83ac391f6e)"><path fill="#267a9c" d="M 156.027344 135.527344 L 171.808594 150.855469 L 170.175781 152.441406 L 152.761719 135.527344 L 170.179688 118.613281 L 171.816406 120.203125 Z M 193.046875 105.925781 L 195.222656 106.457031 L 182.152344 165.125 L 179.976562 164.59375 Z M 205.019531 118.613281 L 222.4375 135.527344 L 205.019531 152.441406 L 203.382812 150.855469 L 219.167969 135.527344 L 203.382812 120.203125 Z M 205.019531 118.613281 " fill-opacity="1" fill-rule="nonzero"/></g><g fill="#000000" fill-opacity="1"><g transform="translate(34.438952, 208.782445)"><g><path d="M 30.003906 0 L 30.003906 -6.066406 L 11.179688 -6.066406 L 11.179688 -15.941406 L 27.230469 -15.941406 L 27.230469 -21.652344 L 11.179688 -21.652344 L 11.179688 -30.929688 L 29.761719 -30.929688 L 29.761719 -36.996094 L 4.40625 -36.996094 L 4.40625 0 Z M 30.003906 0 "/></g></g></g><g fill="#000000" fill-opacity="1"><g transform="translate(66.192107, 208.782445)"><g><path d="M 38.136719 -28.808594 C 34.140625 -28.808594 30.738281 -26.792969 28.34375 -22.496094 C 26.792969 -26.605469 23.695312 -28.808594 19.015625 -28.808594 C 14.878906 -28.808594 11.535156 -26.578125 10.09375 -23.613281 L 10.011719 -27.964844 L 3.863281 -27.964844 L 3.863281 0 L 10.363281 0 L 10.363281 -14.28125 C 10.363281 -19.3125 13.574219 -22.742188 17.109375 -22.742188 C 20.703125 -22.742188 22.988281 -20.457031 22.988281 -14.933594 L 22.988281 0 L 29.488281 0 L 29.488281 -14.28125 C 29.488281 -19.3125 32.726562 -22.742188 36.234375 -22.742188 C 39.851562 -22.742188 42.136719 -20.457031 42.136719 -14.933594 L 42.136719 0 L 48.640625 0 L 48.640625 -15.070312 C 48.640625 -23.855469 45.15625 -28.808594 38.136719 -28.808594 Z M 38.136719 -28.808594 "/></g></g></g><g fill="#000000" fill-opacity="1"><g transform="translate(118.443447, 208.782445)"><g><path d="M 10.445312 0 L 10.445312 -13.003906 C 10.445312 -18.960938 13.519531 -22.304688 18.035156 -22.304688 L 20.675781 -22.304688 L 20.675781 -27.964844 L 17.683594 -27.964844 C 14.035156 -27.964844 11.480469 -25.980469 10.175781 -22.90625 L 10.175781 -27.964844 L 3.863281 -27.964844 L 3.863281 0 Z M 10.445312 0 "/></g></g></g><g fill="#000000" fill-opacity="1"><g transform="translate(139.94751, 208.782445)"><g><path d="M 30.46875 -14.472656 C 30.46875 -22.171875 24.808594 -28.808594 16.375 -28.808594 C 7.96875 -28.808594 1.878906 -22.144531 1.878906 -13.980469 C 1.878906 -5.820312 7.96875 0.84375 16.375 0.84375 C 23.339844 0.84375 28.316406 -3.753906 29.734375 -8.785156 L 22.550781 -8.785156 C 21.597656 -6.417969 19.558594 -5.03125 16.238281 -5.03125 C 12.378906 -5.03125 9.167969 -7.671875 8.488281 -12.242188 L 30.332031 -12.242188 C 30.441406 -13.273438 30.46875 -13.765625 30.46875 -14.472656 Z M 8.757812 -17.328125 C 9.875 -21.273438 13.03125 -23.066406 16.347656 -23.066406 C 20.210938 -23.066406 23.476562 -20.457031 23.75 -17.328125 Z M 8.757812 -17.328125 "/></g></g></g><g fill="#000000" fill-opacity="1"><g transform="translate(171.890966, 208.782445)"><g/></g></g><g fill="#000000" fill-opacity="1"><g transform="translate(185.456741, 208.782445)"><g><path d="M 18.933594 0 L 18.933594 -30.957031 L 29.949219 -30.957031 L 29.949219 -36.996094 L 1.167969 -36.996094 L 1.167969 -30.957031 L 12.1875 -30.957031 L 12.1875 0 Z M 18.933594 0 "/></g></g></g><g fill="#000000" fill-opacity="1"><g transform="translate(216.557434, 208.782445)"><g><path d="M 16.429688 0.84375 C 23.828125 0.84375 29.542969 -3.074219 29.542969 -13.03125 L 29.542969 -27.964844 L 22.988281 -27.964844 L 22.988281 -13.21875 C 22.988281 -8.105469 20.808594 -5.277344 16.402344 -5.277344 C 12.023438 -5.277344 9.792969 -8.050781 9.792969 -13.21875 L 9.792969 -27.964844 L 3.265625 -27.964844 L 3.265625 -13.03125 C 3.265625 -3.074219 8.949219 0.84375 16.429688 0.84375 Z M 16.429688 0.84375 "/></g></g></g><g fill="#000000" fill-opacity="1"><g transform="translate(249.343654, 208.782445)"><g><path d="M 10.445312 0 L 10.445312 -13.003906 C 10.445312 -18.960938 13.519531 -22.304688 18.035156 -22.304688 L 20.675781 -22.304688 L 20.675781 -27.964844 L 17.683594 -27.964844 C 14.035156 -27.964844 11.480469 -25.980469 10.175781 -22.90625 L 10.175781 -27.964844 L 3.863281 -27.964844 L 3.863281 0 Z M 10.445312 0 "/></g></g></g><g fill="#000000" fill-opacity="1"><g transform="translate(270.847717, 208.782445)"><g><path d="M 15.042969 0.84375 C 19.585938 0.84375 23.285156 -1.222656 25.109375 -4.707031 L 25.109375 0 L 31.363281 0 L 31.363281 -27.964844 L 25.109375 -27.964844 L 25.109375 -23.230469 C 23.3125 -26.714844 19.585938 -28.808594 15.015625 -28.808594 C 7.535156 -28.808594 1.878906 -22.144531 1.878906 -13.980469 C 1.878906 -5.765625 7.480469 0.84375 15.042969 0.84375 Z M 16.621094 -5.25 C 12.1875 -5.25 8.40625 -8.542969 8.40625 -13.980469 C 8.40625 -19.234375 12.105469 -22.714844 16.621094 -22.714844 C 21.191406 -22.714844 24.835938 -18.851562 24.835938 -13.980469 C 24.835938 -9.03125 21.21875 -5.25 16.621094 -5.25 Z M 16.621094 -5.25 "/></g></g></g><g fill="#000000" fill-opacity="1"><g transform="translate(306.053485, 208.782445)"><g><path d="M 10.445312 0 L 10.445312 -14.28125 C 10.445312 -19.75 13.980469 -22.742188 17.84375 -22.742188 C 21.816406 -22.742188 24.320312 -20.484375 24.320312 -14.933594 L 24.320312 0 L 30.902344 0 L 30.902344 -15.070312 C 30.902344 -23.855469 27.175781 -28.808594 19.667969 -28.808594 C 15.371094 -28.808594 11.722656 -26.660156 10.121094 -23.613281 L 10.121094 -27.964844 L 3.863281 -27.964844 L 3.863281 0 Z M 10.445312 0 "/></g></g></g><path fill="#e0edf3" d="M 156.089844 230.609375 L 218.0625 230.609375 C 220.714844 230.609375 223.257812 231.667969 225.136719 233.546875 C 227.011719 235.425781 228.066406 237.976562 228.066406 240.636719 L 228.066406 260.6875 C 228.066406 263.347656 227.011719 265.894531 225.136719 267.777344 C 223.257812 269.65625 220.714844 270.710938 218.0625 270.710938 L 156.089844 270.710938 C 153.4375 270.710938 150.894531 269.65625 149.015625 267.777344 C 147.140625 265.894531 146.085938 263.347656 146.085938 260.6875 L 146.085938 240.636719 C 146.085938 237.976562 147.140625 235.425781 149.015625 233.546875 C 150.894531 231.667969 153.4375 230.609375 156.089844 230.609375 " fill-opacity="1" fill-rule="nonzero"/><g fill="#267a9c" fill-opacity="1"><g transform="translate(159.428768, 256.080607)"><g><path d="M 8.988281 0.492188 C 11.71875 0.492188 13.671875 -1.03125 14.636719 -2.746094 L 14.636719 0 L 18.289062 0 L 18.289062 -22.355469 L 14.464844 -22.355469 L 14.464844 -15.351562 L 14.542969 -13.652344 C 13.6875 -15.195312 11.703125 -16.8125 9.035156 -16.8125 C 4.269531 -16.8125 1.09375 -12.925781 1.09375 -8.160156 C 1.09375 -3.367188 4.351562 0.492188 8.988281 0.492188 Z M 9.683594 -3.046875 C 6.875 -3.046875 4.875 -5.269531 4.875 -8.160156 C 4.875 -11.128906 6.96875 -13.257812 9.683594 -13.257812 C 12.382812 -13.257812 14.496094 -11.019531 14.496094 -8.160156 C 14.496094 -5.269531 12.367188 -3.046875 9.683594 -3.046875 Z M 9.683594 -3.046875 "/></g></g><g transform="translate(179.957651, 256.080607)"><g><path d="M 17.78125 -8.445312 C 17.78125 -12.941406 14.480469 -16.8125 9.558594 -16.8125 C 4.652344 -16.8125 1.09375 -12.925781 1.09375 -8.160156 C 1.09375 -3.398438 4.652344 0.492188 9.558594 0.492188 C 13.621094 0.492188 16.527344 -2.191406 17.351562 -5.128906 L 13.160156 -5.128906 C 12.605469 -3.746094 11.414062 -2.9375 9.480469 -2.9375 C 7.222656 -2.9375 5.351562 -4.476562 4.953125 -7.144531 L 17.703125 -7.144531 C 17.765625 -7.746094 17.78125 -8.035156 17.78125 -8.445312 Z M 5.113281 -10.113281 C 5.761719 -12.414062 7.605469 -13.464844 9.542969 -13.464844 C 11.796875 -13.464844 13.703125 -11.941406 13.859375 -10.113281 Z M 5.113281 -10.113281 "/></g></g><g transform="translate(198.613055, 256.080607)"><g><path d="M 10.242188 0 L 16.78125 -16.320312 L 12.667969 -16.320312 L 8.875 -6.445312 L 8.460938 -4.746094 L 8.035156 -6.460938 L 4.238281 -16.320312 L 0.160156 -16.320312 L 6.667969 0 Z M 10.242188 0 "/></g></g></g></svg>