<svg xmlns="http://www.w3.org/2000/svg" xmlns:xlink="http://www.w3.org/1999/xlink" width="302" zoomAndPan="magnify" viewBox="0 0 226.5 181.5" height="242" preserveAspectRatio="xMidYMid meet" version="1.0"><defs><g/><clipPath id="eacadfe225"><path d="M 106.46875 75.160156 L 119.632812 75.160156 L 119.632812 86.347656 L 106.46875 86.347656 Z M 106.46875 75.160156 " clip-rule="nonzero"/></clipPath></defs><g clip-path="url(#eacadfe225)"><path fill="#267a9c" d="M 107.085938 80.753906 L 110.070312 83.648438 L 109.757812 83.949219 L 106.46875 80.753906 L 109.761719 77.558594 L 110.070312 77.859375 Z M 114.082031 75.164062 L 114.492188 75.261719 L 112.023438 86.347656 L 111.613281 86.246094 Z M 116.34375 77.558594 L 119.632812 80.753906 L 116.34375 83.949219 L 116.035156 83.648438 L 119.015625 80.753906 L 116.035156 77.859375 Z M 116.34375 77.558594 " fill-opacity="1" fill-rule="nonzero"/></g><g fill="#000000" fill-opacity="1"><g transform="translate(84.118548, 94.593099)"><g><path d="M 5.667969 0 L 5.667969 -1.144531 L 2.113281 -1.144531 L 2.113281 -3.011719 L 5.144531 -3.011719 L 5.144531 -4.089844 L 2.113281 -4.089844 L 2.113281 -5.84375 L 5.621094 -5.84375 L 5.621094 -6.988281 L 0.832031 -6.988281 L 0.832031 0 Z M 5.667969 0 "/></g></g></g><g fill="#000000" fill-opacity="1"><g transform="translate(90.11692, 94.593099)"><g><path d="M 7.203125 -5.441406 C 6.449219 -5.441406 5.808594 -5.0625 5.355469 -4.25 C 5.0625 -5.027344 4.476562 -5.441406 3.59375 -5.441406 C 2.8125 -5.441406 2.179688 -5.019531 1.90625 -4.460938 L 1.890625 -5.28125 L 0.730469 -5.28125 L 0.730469 0 L 1.957031 0 L 1.957031 -2.699219 C 1.957031 -3.648438 2.5625 -4.296875 3.230469 -4.296875 C 3.910156 -4.296875 4.34375 -3.863281 4.34375 -2.820312 L 4.34375 0 L 5.570312 0 L 5.570312 -2.699219 C 5.570312 -3.648438 6.183594 -4.296875 6.84375 -4.296875 C 7.527344 -4.296875 7.960938 -3.863281 7.960938 -2.820312 L 7.960938 0 L 9.1875 0 L 9.1875 -2.847656 C 9.1875 -4.507812 8.53125 -5.441406 7.203125 -5.441406 Z M 7.203125 -5.441406 "/></g></g></g><g fill="#000000" fill-opacity="1"><g transform="translate(99.987528, 94.593099)"><g><path d="M 1.972656 0 L 1.972656 -2.457031 C 1.972656 -3.582031 2.554688 -4.214844 3.40625 -4.214844 L 3.90625 -4.214844 L 3.90625 -5.28125 L 3.339844 -5.28125 C 2.652344 -5.28125 2.167969 -4.90625 1.921875 -4.328125 L 1.921875 -5.28125 L 0.730469 -5.28125 L 0.730469 0 Z M 1.972656 0 "/></g></g></g><g fill="#000000" fill-opacity="1"><g transform="translate(104.049782, 94.593099)"><g><path d="M 5.753906 -2.734375 C 5.753906 -4.1875 4.6875 -5.441406 3.09375 -5.441406 C 1.503906 -5.441406 0.355469 -4.183594 0.355469 -2.640625 C 0.355469 -1.101562 1.503906 0.160156 3.09375 0.160156 C 4.410156 0.160156 5.347656 -0.710938 5.617188 -1.660156 L 4.261719 -1.660156 C 4.082031 -1.210938 3.695312 -0.949219 3.066406 -0.949219 C 2.339844 -0.949219 1.730469 -1.449219 1.601562 -2.3125 L 5.730469 -2.3125 C 5.75 -2.507812 5.753906 -2.601562 5.753906 -2.734375 Z M 1.65625 -3.273438 C 1.867188 -4.019531 2.460938 -4.359375 3.089844 -4.359375 C 3.816406 -4.359375 4.433594 -3.863281 4.484375 -3.273438 Z M 1.65625 -3.273438 "/></g></g></g><g fill="#000000" fill-opacity="1"><g transform="translate(110.084103, 94.593099)"><g/></g></g><g fill="#000000" fill-opacity="1"><g transform="translate(112.646763, 94.593099)"><g><path d="M 3.578125 0 L 3.578125 -5.847656 L 5.65625 -5.847656 L 5.65625 -6.988281 L 0.222656 -6.988281 L 0.222656 -5.847656 L 2.300781 -5.847656 L 2.300781 0 Z M 3.578125 0 "/></g></g></g><g fill="#000000" fill-opacity="1"><g transform="translate(118.521881, 94.593099)"><g><path d="M 3.105469 0.160156 C 4.5 0.160156 5.582031 -0.582031 5.582031 -2.460938 L 5.582031 -5.28125 L 4.34375 -5.28125 L 4.34375 -2.496094 C 4.34375 -1.53125 3.929688 -0.996094 3.097656 -0.996094 C 2.269531 -0.996094 1.851562 -1.519531 1.851562 -2.496094 L 1.851562 -5.28125 L 0.617188 -5.28125 L 0.617188 -2.460938 C 0.617188 -0.582031 1.691406 0.160156 3.105469 0.160156 Z M 3.105469 0.160156 "/></g></g></g><g fill="#000000" fill-opacity="1"><g transform="translate(124.715405, 94.593099)"><g><path d="M 1.972656 0 L 1.972656 -2.457031 C 1.972656 -3.582031 2.554688 -4.214844 3.40625 -4.214844 L 3.90625 -4.214844 L 3.90625 -5.28125 L 3.339844 -5.28125 C 2.652344 -5.28125 2.167969 -4.90625 1.921875 -4.328125 L 1.921875 -5.28125 L 0.730469 -5.28125 L 0.730469 0 Z M 1.972656 0 "/></g></g></g><g fill="#000000" fill-opacity="1"><g transform="translate(128.777659, 94.593099)"><g><path d="M 2.839844 0.160156 C 3.699219 0.160156 4.398438 -0.230469 4.742188 -0.890625 L 4.742188 0 L 5.925781 0 L 5.925781 -5.28125 L 4.742188 -5.28125 L 4.742188 -4.386719 C 4.402344 -5.046875 3.699219 -5.441406 2.835938 -5.441406 C 1.421875 -5.441406 0.355469 -4.183594 0.355469 -2.640625 C 0.355469 -1.089844 1.414062 0.160156 2.839844 0.160156 Z M 3.140625 -0.992188 C 2.300781 -0.992188 1.585938 -1.613281 1.585938 -2.640625 C 1.585938 -3.632812 2.285156 -4.289062 3.140625 -4.289062 C 4.003906 -4.289062 4.691406 -3.5625 4.691406 -2.640625 C 4.691406 -1.707031 4.007812 -0.992188 3.140625 -0.992188 Z M 3.140625 -0.992188 "/></g></g></g><g fill="#000000" fill-opacity="1"><g transform="translate(135.428251, 94.593099)"><g><path d="M 1.972656 0 L 1.972656 -2.699219 C 1.972656 -3.730469 2.640625 -4.296875 3.371094 -4.296875 C 4.121094 -4.296875 4.59375 -3.871094 4.59375 -2.820312 L 4.59375 0 L 5.835938 0 L 5.835938 -2.847656 C 5.835938 -4.507812 5.132812 -5.441406 3.714844 -5.441406 C 2.902344 -5.441406 2.214844 -5.035156 1.910156 -4.460938 L 1.910156 -5.28125 L 0.730469 -5.28125 L 0.730469 0 Z M 1.972656 0 "/></g></g></g><path fill="#e0edf3" d="M 107.097656 98.714844 L 118.804688 98.714844 C 119.308594 98.714844 119.789062 98.914062 120.140625 99.269531 C 120.496094 99.625 120.695312 100.109375 120.695312 100.609375 L 120.695312 104.398438 C 120.695312 104.902344 120.496094 105.382812 120.140625 105.738281 C 119.789062 106.09375 119.308594 106.292969 118.804688 106.292969 L 107.097656 106.292969 C 106.597656 106.292969 106.117188 106.09375 105.761719 105.738281 C 105.410156 105.382812 105.210938 104.902344 105.210938 104.398438 L 105.210938 100.609375 C 105.210938 100.109375 105.410156 99.625 105.761719 99.269531 C 106.117188 98.914062 106.597656 98.714844 107.097656 98.714844 " fill-opacity="1" fill-rule="nonzero"/><g fill="#267a9c" fill-opacity="1"><g transform="translate(107.729923, 103.528023)"><g><path d="M 1.699219 0.09375 C 2.214844 0.09375 2.582031 -0.195312 2.765625 -0.519531 L 2.765625 0 L 3.457031 0 L 3.457031 -4.222656 L 2.730469 -4.222656 L 2.730469 -2.898438 L 2.746094 -2.578125 C 2.585938 -2.871094 2.210938 -3.175781 1.707031 -3.175781 C 0.808594 -3.175781 0.207031 -2.441406 0.207031 -1.542969 C 0.207031 -0.636719 0.820312 0.09375 1.699219 0.09375 Z M 1.828125 -0.574219 C 1.296875 -0.574219 0.921875 -0.996094 0.921875 -1.542969 C 0.921875 -2.101562 1.316406 -2.503906 1.828125 -2.503906 C 2.339844 -2.503906 2.738281 -2.082031 2.738281 -1.542969 C 2.738281 -0.996094 2.335938 -0.574219 1.828125 -0.574219 Z M 1.828125 -0.574219 "/></g></g><g transform="translate(111.60796, 103.528023)"><g><path d="M 3.359375 -1.59375 C 3.359375 -2.445312 2.734375 -3.175781 1.804688 -3.175781 C 0.878906 -3.175781 0.207031 -2.441406 0.207031 -1.542969 C 0.207031 -0.640625 0.878906 0.09375 1.804688 0.09375 C 2.574219 0.09375 3.121094 -0.414062 3.277344 -0.96875 L 2.488281 -0.96875 C 2.382812 -0.707031 2.15625 -0.554688 1.789062 -0.554688 C 1.363281 -0.554688 1.011719 -0.847656 0.9375 -1.351562 L 3.34375 -1.351562 C 3.355469 -1.464844 3.359375 -1.519531 3.359375 -1.59375 Z M 0.964844 -1.910156 C 1.089844 -2.34375 1.4375 -2.542969 1.800781 -2.542969 C 2.226562 -2.542969 2.589844 -2.253906 2.617188 -1.910156 Z M 0.964844 -1.910156 "/></g></g><g transform="translate(115.132084, 103.528023)"><g><path d="M 1.933594 0 L 3.171875 -3.082031 L 2.394531 -3.082031 L 1.675781 -1.21875 L 1.597656 -0.898438 L 1.519531 -1.21875 L 0.800781 -3.082031 L 0.03125 -3.082031 L 1.257812 0 Z M 1.933594 0 "/></g></g></g></svg>